<mxfile host="app.diagrams.net" modified="2022-10-14T03:56:46.641Z" agent="5.0 (Windows)" etag="n6e9Elb01RSh2YbRjJuC" version="20.4.0" type="github" pages="3">
  <diagram id="KFq1VnRZqgyQegYFL8tA" name="Agent Design">
    <mxGraphModel dx="1081" dy="595" grid="1" gridSize="10" guides="1" tooltips="1" connect="1" arrows="1" fold="1" page="1" pageScale="1" pageWidth="850" pageHeight="1100" math="0" shadow="0">
      <root>
        <mxCell id="0" />
        <mxCell id="1" parent="0" />
        <mxCell id="137N6jKFVl5DNXeLoapw-11" value="Organizer" style="swimlane;fontStyle=0;childLayout=stackLayout;horizontal=1;startSize=26;fillColor=none;horizontalStack=0;resizeParent=1;resizeParentMax=0;resizeLast=0;collapsible=1;marginBottom=0;" parent="1" vertex="1">
          <mxGeometry x="310" y="230" width="140" height="52" as="geometry" />
        </mxCell>
        <mxCell id="137N6jKFVl5DNXeLoapw-12" value="Organizer" style="text;strokeColor=none;fillColor=none;align=left;verticalAlign=top;spacingLeft=4;spacingRight=4;overflow=hidden;rotatable=0;points=[[0,0.5],[1,0.5]];portConstraint=eastwest;" parent="137N6jKFVl5DNXeLoapw-11" vertex="1">
          <mxGeometry y="26" width="140" height="26" as="geometry" />
        </mxCell>
        <mxCell id="137N6jKFVl5DNXeLoapw-15" value="Interface" style="swimlane;fontStyle=0;childLayout=stackLayout;horizontal=1;startSize=26;fillColor=none;horizontalStack=0;resizeParent=1;resizeParentMax=0;resizeLast=0;collapsible=1;marginBottom=0;" parent="1" vertex="1">
          <mxGeometry x="310" y="100" width="140" height="52" as="geometry" />
        </mxCell>
        <mxCell id="137N6jKFVl5DNXeLoapw-16" value="Interface" style="text;strokeColor=none;fillColor=none;align=left;verticalAlign=top;spacingLeft=4;spacingRight=4;overflow=hidden;rotatable=0;points=[[0,0.5],[1,0.5]];portConstraint=eastwest;" parent="137N6jKFVl5DNXeLoapw-15" vertex="1">
          <mxGeometry y="26" width="140" height="26" as="geometry" />
        </mxCell>
        <mxCell id="137N6jKFVl5DNXeLoapw-19" value="Project" style="swimlane;fontStyle=0;childLayout=stackLayout;horizontal=1;startSize=26;fillColor=none;horizontalStack=0;resizeParent=1;resizeParentMax=0;resizeLast=0;collapsible=1;marginBottom=0;" parent="1" vertex="1">
          <mxGeometry x="540" y="230" width="140" height="78" as="geometry" />
        </mxCell>
        <mxCell id="137N6jKFVl5DNXeLoapw-20" value="Project" style="text;strokeColor=none;fillColor=none;align=left;verticalAlign=top;spacingLeft=4;spacingRight=4;overflow=hidden;rotatable=0;points=[[0,0.5],[1,0.5]];portConstraint=eastwest;" parent="137N6jKFVl5DNXeLoapw-19" vertex="1">
          <mxGeometry y="26" width="140" height="26" as="geometry" />
        </mxCell>
        <mxCell id="137N6jKFVl5DNXeLoapw-21" value="Contract" style="text;strokeColor=none;fillColor=none;align=left;verticalAlign=top;spacingLeft=4;spacingRight=4;overflow=hidden;rotatable=0;points=[[0,0.5],[1,0.5]];portConstraint=eastwest;" parent="137N6jKFVl5DNXeLoapw-19" vertex="1">
          <mxGeometry y="52" width="140" height="26" as="geometry" />
        </mxCell>
        <mxCell id="137N6jKFVl5DNXeLoapw-23" value="Search" style="swimlane;fontStyle=0;childLayout=stackLayout;horizontal=1;startSize=26;fillColor=none;horizontalStack=0;resizeParent=1;resizeParentMax=0;resizeLast=0;collapsible=1;marginBottom=0;" parent="1" vertex="1">
          <mxGeometry x="90" y="230" width="140" height="52" as="geometry" />
        </mxCell>
        <mxCell id="137N6jKFVl5DNXeLoapw-24" value="Search" style="text;strokeColor=none;fillColor=none;align=left;verticalAlign=top;spacingLeft=4;spacingRight=4;overflow=hidden;rotatable=0;points=[[0,0.5],[1,0.5]];portConstraint=eastwest;" parent="137N6jKFVl5DNXeLoapw-23" vertex="1">
          <mxGeometry y="26" width="140" height="26" as="geometry" />
        </mxCell>
        <mxCell id="137N6jKFVl5DNXeLoapw-27" value="Payment" style="swimlane;fontStyle=0;childLayout=stackLayout;horizontal=1;startSize=26;fillColor=none;horizontalStack=0;resizeParent=1;resizeParentMax=0;resizeLast=0;collapsible=1;marginBottom=0;" parent="1" vertex="1">
          <mxGeometry x="310" y="360" width="140" height="52" as="geometry" />
        </mxCell>
        <mxCell id="137N6jKFVl5DNXeLoapw-28" value="Payment" style="text;strokeColor=none;fillColor=none;align=left;verticalAlign=top;spacingLeft=4;spacingRight=4;overflow=hidden;rotatable=0;points=[[0,0.5],[1,0.5]];portConstraint=eastwest;" parent="137N6jKFVl5DNXeLoapw-27" vertex="1">
          <mxGeometry y="26" width="140" height="26" as="geometry" />
        </mxCell>
        <mxCell id="137N6jKFVl5DNXeLoapw-31" value="" style="edgeStyle=elbowEdgeStyle;elbow=vertical;endArrow=classic;html=1;rounded=0;exitX=0.121;exitY=1.077;exitDx=0;exitDy=0;entryX=0.8;entryY=1.038;entryDx=0;entryDy=0;exitPerimeter=0;entryPerimeter=0;" parent="137N6jKFVl5DNXeLoapw-27" source="137N6jKFVl5DNXeLoapw-28" target="137N6jKFVl5DNXeLoapw-28" edge="1">
          <mxGeometry width="50" height="50" relative="1" as="geometry">
            <mxPoint x="80" y="120" as="sourcePoint" />
            <mxPoint x="150" y="120" as="targetPoint" />
            <Array as="points">
              <mxPoint x="115" y="90" />
              <mxPoint x="225" y="80" />
            </Array>
          </mxGeometry>
        </mxCell>
        <mxCell id="137N6jKFVl5DNXeLoapw-29" value="" style="edgeStyle=elbowEdgeStyle;elbow=vertical;endArrow=classic;html=1;rounded=0;exitX=0.25;exitY=0;exitDx=0;exitDy=0;entryX=0.75;entryY=0;entryDx=0;entryDy=0;" parent="1" source="137N6jKFVl5DNXeLoapw-23" target="137N6jKFVl5DNXeLoapw-23" edge="1">
          <mxGeometry width="50" height="50" relative="1" as="geometry">
            <mxPoint x="450" y="330" as="sourcePoint" />
            <mxPoint x="500" y="280" as="targetPoint" />
            <Array as="points">
              <mxPoint x="190" y="200" />
              <mxPoint x="300" y="190" />
            </Array>
          </mxGeometry>
        </mxCell>
        <mxCell id="137N6jKFVl5DNXeLoapw-30" value="Query User Database" style="text;html=1;strokeColor=none;fillColor=none;align=center;verticalAlign=middle;whiteSpace=wrap;rounded=0;" parent="1" vertex="1">
          <mxGeometry x="130" y="160" width="60" height="30" as="geometry" />
        </mxCell>
        <mxCell id="137N6jKFVl5DNXeLoapw-32" value="Transfer Money" style="text;html=1;strokeColor=none;fillColor=none;align=center;verticalAlign=middle;whiteSpace=wrap;rounded=0;" parent="1" vertex="1">
          <mxGeometry x="350" y="450" width="60" height="30" as="geometry" />
        </mxCell>
        <mxCell id="137N6jKFVl5DNXeLoapw-33" value="Chat" style="swimlane;fontStyle=0;childLayout=stackLayout;horizontal=1;startSize=26;fillColor=none;horizontalStack=0;resizeParent=1;resizeParentMax=0;resizeLast=0;collapsible=1;marginBottom=0;" parent="1" vertex="1">
          <mxGeometry x="540" y="350" width="140" height="52" as="geometry" />
        </mxCell>
        <mxCell id="137N6jKFVl5DNXeLoapw-34" value="Chat" style="text;strokeColor=none;fillColor=none;align=left;verticalAlign=top;spacingLeft=4;spacingRight=4;overflow=hidden;rotatable=0;points=[[0,0.5],[1,0.5]];portConstraint=eastwest;" parent="137N6jKFVl5DNXeLoapw-33" vertex="1">
          <mxGeometry y="26" width="140" height="26" as="geometry" />
        </mxCell>
        <mxCell id="137N6jKFVl5DNXeLoapw-67" value="" style="edgeStyle=elbowEdgeStyle;elbow=vertical;endArrow=classic;html=1;rounded=0;exitX=0.897;exitY=0.989;exitDx=0;exitDy=0;exitPerimeter=0;entryX=0.105;entryY=1.121;entryDx=0;entryDy=0;entryPerimeter=0;" parent="137N6jKFVl5DNXeLoapw-33" source="137N6jKFVl5DNXeLoapw-34" target="137N6jKFVl5DNXeLoapw-34" edge="1">
          <mxGeometry width="50" height="50" relative="1" as="geometry">
            <mxPoint x="10" y="-45" as="sourcePoint" />
            <mxPoint y="70" as="targetPoint" />
            <Array as="points">
              <mxPoint x="100" y="80" />
              <mxPoint x="50" y="80" />
            </Array>
          </mxGeometry>
        </mxCell>
        <mxCell id="137N6jKFVl5DNXeLoapw-38" value="" style="edgeStyle=segmentEdgeStyle;endArrow=classic;html=1;rounded=0;exitX=0.25;exitY=0;exitDx=0;exitDy=0;entryX=0.286;entryY=1.058;entryDx=0;entryDy=0;entryPerimeter=0;" parent="1" source="137N6jKFVl5DNXeLoapw-11" target="137N6jKFVl5DNXeLoapw-16" edge="1">
          <mxGeometry width="50" height="50" relative="1" as="geometry">
            <mxPoint x="460" y="350" as="sourcePoint" />
            <mxPoint x="350" y="170" as="targetPoint" />
            <Array as="points">
              <mxPoint x="350" y="230" />
            </Array>
          </mxGeometry>
        </mxCell>
        <mxCell id="137N6jKFVl5DNXeLoapw-40" value="Update user&#39;s interface" style="text;html=1;strokeColor=none;fillColor=none;align=center;verticalAlign=middle;whiteSpace=wrap;rounded=0;" parent="1" vertex="1">
          <mxGeometry x="290" y="172" width="60" height="30" as="geometry" />
        </mxCell>
        <mxCell id="137N6jKFVl5DNXeLoapw-41" value="" style="edgeStyle=segmentEdgeStyle;endArrow=classic;html=1;rounded=0;exitX=0.446;exitY=1.077;exitDx=0;exitDy=0;exitPerimeter=0;entryX=0.446;entryY=0;entryDx=0;entryDy=0;entryPerimeter=0;" parent="1" source="137N6jKFVl5DNXeLoapw-16" target="137N6jKFVl5DNXeLoapw-11" edge="1">
          <mxGeometry width="50" height="50" relative="1" as="geometry">
            <mxPoint x="360" y="212" as="sourcePoint" />
            <mxPoint x="410" y="162" as="targetPoint" />
          </mxGeometry>
        </mxCell>
        <mxCell id="137N6jKFVl5DNXeLoapw-42" value="Sign up users" style="text;html=1;strokeColor=none;fillColor=none;align=center;verticalAlign=middle;whiteSpace=wrap;rounded=0;" parent="1" vertex="1">
          <mxGeometry x="360" y="200" width="60" height="30" as="geometry" />
        </mxCell>
        <mxCell id="137N6jKFVl5DNXeLoapw-43" value="" style="edgeStyle=segmentEdgeStyle;endArrow=classic;html=1;rounded=0;exitX=0.786;exitY=1.046;exitDx=0;exitDy=0;exitPerimeter=0;entryX=1;entryY=1;entryDx=0;entryDy=0;" parent="1" source="137N6jKFVl5DNXeLoapw-16" target="137N6jKFVl5DNXeLoapw-42" edge="1">
          <mxGeometry width="50" height="50" relative="1" as="geometry">
            <mxPoint x="425" y="212" as="sourcePoint" />
            <mxPoint x="475" y="162" as="targetPoint" />
          </mxGeometry>
        </mxCell>
        <mxCell id="137N6jKFVl5DNXeLoapw-44" value="Login users" style="text;html=1;strokeColor=none;fillColor=none;align=center;verticalAlign=middle;whiteSpace=wrap;rounded=0;" parent="1" vertex="1">
          <mxGeometry x="370" y="152" width="60" height="30" as="geometry" />
        </mxCell>
        <mxCell id="137N6jKFVl5DNXeLoapw-45" value="" style="edgeStyle=segmentEdgeStyle;endArrow=classic;html=1;rounded=0;exitX=1;exitY=0.25;exitDx=0;exitDy=0;entryX=-0.009;entryY=0.165;entryDx=0;entryDy=0;entryPerimeter=0;" parent="1" source="137N6jKFVl5DNXeLoapw-11" target="137N6jKFVl5DNXeLoapw-19" edge="1">
          <mxGeometry width="50" height="50" relative="1" as="geometry">
            <mxPoint x="540" y="310" as="sourcePoint" />
            <mxPoint x="590" y="260" as="targetPoint" />
          </mxGeometry>
        </mxCell>
        <mxCell id="137N6jKFVl5DNXeLoapw-46" value="Initiates new project" style="text;html=1;strokeColor=none;fillColor=none;align=center;verticalAlign=middle;whiteSpace=wrap;rounded=0;" parent="1" vertex="1">
          <mxGeometry x="460" y="210" width="70" height="30" as="geometry" />
        </mxCell>
        <mxCell id="137N6jKFVl5DNXeLoapw-49" value="" style="endArrow=classic;html=1;rounded=0;exitX=0;exitY=0.25;exitDx=0;exitDy=0;entryX=1;entryY=0.25;entryDx=0;entryDy=0;" parent="1" source="137N6jKFVl5DNXeLoapw-11" target="137N6jKFVl5DNXeLoapw-23" edge="1">
          <mxGeometry width="50" height="50" relative="1" as="geometry">
            <mxPoint x="390" y="310" as="sourcePoint" />
            <mxPoint x="440" y="260" as="targetPoint" />
          </mxGeometry>
        </mxCell>
        <mxCell id="137N6jKFVl5DNXeLoapw-50" value="Get user data" style="text;html=1;strokeColor=none;fillColor=none;align=center;verticalAlign=middle;whiteSpace=wrap;rounded=0;" parent="1" vertex="1">
          <mxGeometry x="240" y="211" width="60" height="30" as="geometry" />
        </mxCell>
        <mxCell id="137N6jKFVl5DNXeLoapw-51" value="" style="edgeStyle=elbowEdgeStyle;elbow=vertical;endArrow=classic;html=1;rounded=0;exitX=0.121;exitY=1.077;exitDx=0;exitDy=0;entryX=0.919;entryY=0.956;entryDx=0;entryDy=0;exitPerimeter=0;entryPerimeter=0;" parent="1" target="137N6jKFVl5DNXeLoapw-28" edge="1">
          <mxGeometry width="50" height="50" relative="1" as="geometry">
            <mxPoint x="314.94000000000005" y="413.01200000000006" as="sourcePoint" />
            <mxPoint x="410" y="411.99800000000005" as="targetPoint" />
            <Array as="points">
              <mxPoint x="370" y="490" />
              <mxPoint x="523" y="439.01" />
            </Array>
          </mxGeometry>
        </mxCell>
        <mxCell id="137N6jKFVl5DNXeLoapw-53" value="Query financial database" style="text;html=1;strokeColor=none;fillColor=none;align=center;verticalAlign=middle;whiteSpace=wrap;rounded=0;" parent="1" vertex="1">
          <mxGeometry x="350" y="500" width="60" height="30" as="geometry" />
        </mxCell>
        <mxCell id="137N6jKFVl5DNXeLoapw-54" value="" style="edgeStyle=elbowEdgeStyle;elbow=vertical;endArrow=classic;html=1;rounded=0;exitX=0.25;exitY=0;exitDx=0;exitDy=0;entryX=0.75;entryY=0;entryDx=0;entryDy=0;" parent="1" source="137N6jKFVl5DNXeLoapw-19" target="137N6jKFVl5DNXeLoapw-19" edge="1">
          <mxGeometry width="50" height="50" relative="1" as="geometry">
            <mxPoint x="640" y="222.15200000000004" as="sourcePoint" />
            <mxPoint x="763.72" y="219.99599999999998" as="targetPoint" />
            <Array as="points">
              <mxPoint x="610" y="200" />
              <mxPoint x="640" y="190" />
              <mxPoint x="848.06" y="248.14999999999998" />
            </Array>
          </mxGeometry>
        </mxCell>
        <mxCell id="137N6jKFVl5DNXeLoapw-55" value="Completes contract reqs" style="text;html=1;strokeColor=none;fillColor=none;align=center;verticalAlign=middle;whiteSpace=wrap;rounded=0;" parent="1" vertex="1">
          <mxGeometry x="567.5" y="160" width="85" height="30" as="geometry" />
        </mxCell>
        <mxCell id="137N6jKFVl5DNXeLoapw-57" value="" style="endArrow=classic;html=1;rounded=0;exitX=0;exitY=0.25;exitDx=0;exitDy=0;entryX=1;entryY=0.5;entryDx=0;entryDy=0;" parent="1" target="137N6jKFVl5DNXeLoapw-12" edge="1">
          <mxGeometry width="50" height="50" relative="1" as="geometry">
            <mxPoint x="540" y="268.71" as="sourcePoint" />
            <mxPoint x="460" y="268.71" as="targetPoint" />
          </mxGeometry>
        </mxCell>
        <mxCell id="137N6jKFVl5DNXeLoapw-58" value="Informs of new contract" style="text;html=1;strokeColor=none;fillColor=none;align=center;verticalAlign=middle;whiteSpace=wrap;rounded=0;" parent="1" vertex="1">
          <mxGeometry x="455" y="241" width="80" height="30" as="geometry" />
        </mxCell>
        <mxCell id="137N6jKFVl5DNXeLoapw-59" value="" style="edgeStyle=elbowEdgeStyle;elbow=vertical;endArrow=classic;html=1;rounded=0;exitX=0;exitY=0.5;exitDx=0;exitDy=0;entryX=0.929;entryY=0.923;entryDx=0;entryDy=0;entryPerimeter=0;" parent="1" source="137N6jKFVl5DNXeLoapw-21" target="137N6jKFVl5DNXeLoapw-12" edge="1">
          <mxGeometry width="50" height="50" relative="1" as="geometry">
            <mxPoint x="390.00000000000006" y="310.15200000000004" as="sourcePoint" />
            <mxPoint x="513.72" y="307.996" as="targetPoint" />
            <Array as="points">
              <mxPoint x="490" y="300" />
            </Array>
          </mxGeometry>
        </mxCell>
        <mxCell id="137N6jKFVl5DNXeLoapw-61" value="Notifies of change/progress" style="text;html=1;strokeColor=none;fillColor=none;align=center;verticalAlign=middle;whiteSpace=wrap;rounded=0;" parent="1" vertex="1">
          <mxGeometry x="450" y="300" width="80" height="30" as="geometry" />
        </mxCell>
        <mxCell id="137N6jKFVl5DNXeLoapw-62" value="" style="endArrow=classic;html=1;rounded=0;exitX=0.501;exitY=1.044;exitDx=0;exitDy=0;exitPerimeter=0;entryX=0.5;entryY=0;entryDx=0;entryDy=0;" parent="1" source="137N6jKFVl5DNXeLoapw-21" target="137N6jKFVl5DNXeLoapw-33" edge="1">
          <mxGeometry width="50" height="50" relative="1" as="geometry">
            <mxPoint x="590" y="330" as="sourcePoint" />
            <mxPoint x="640" y="280" as="targetPoint" />
          </mxGeometry>
        </mxCell>
        <mxCell id="137N6jKFVl5DNXeLoapw-63" value="Creates a new chat room" style="text;html=1;strokeColor=none;fillColor=none;align=center;verticalAlign=middle;whiteSpace=wrap;rounded=0;" parent="1" vertex="1">
          <mxGeometry x="600" y="310" width="100" height="30" as="geometry" />
        </mxCell>
        <mxCell id="137N6jKFVl5DNXeLoapw-64" value="" style="endArrow=classic;html=1;rounded=0;exitX=1.009;exitY=0.11;exitDx=0;exitDy=0;entryX=-0.003;entryY=0.11;entryDx=0;entryDy=0;exitPerimeter=0;entryPerimeter=0;" parent="1" source="137N6jKFVl5DNXeLoapw-24" target="137N6jKFVl5DNXeLoapw-12" edge="1">
          <mxGeometry width="50" height="50" relative="1" as="geometry">
            <mxPoint x="310" y="301" as="sourcePoint" />
            <mxPoint x="230" y="301" as="targetPoint" />
          </mxGeometry>
        </mxCell>
        <mxCell id="137N6jKFVl5DNXeLoapw-65" value="User data" style="text;html=1;strokeColor=none;fillColor=none;align=center;verticalAlign=middle;whiteSpace=wrap;rounded=0;" parent="1" vertex="1">
          <mxGeometry x="240" y="254" width="60" height="30" as="geometry" />
        </mxCell>
        <mxCell id="137N6jKFVl5DNXeLoapw-68" value="Maintains chat records" style="text;html=1;strokeColor=none;fillColor=none;align=center;verticalAlign=middle;whiteSpace=wrap;rounded=0;" parent="1" vertex="1">
          <mxGeometry x="560" y="430" width="100" height="30" as="geometry" />
        </mxCell>
        <mxCell id="137N6jKFVl5DNXeLoapw-69" value="" style="endArrow=classic;html=1;rounded=0;exitX=0.36;exitY=1.047;exitDx=0;exitDy=0;exitPerimeter=0;" parent="1" source="137N6jKFVl5DNXeLoapw-12" edge="1">
          <mxGeometry width="50" height="50" relative="1" as="geometry">
            <mxPoint x="360" y="290" as="sourcePoint" />
            <mxPoint x="360" y="360" as="targetPoint" />
          </mxGeometry>
        </mxCell>
        <mxCell id="137N6jKFVl5DNXeLoapw-70" value="Process payment" style="text;html=1;strokeColor=none;fillColor=none;align=center;verticalAlign=middle;whiteSpace=wrap;rounded=0;" parent="1" vertex="1">
          <mxGeometry x="300" y="300" width="60" height="30" as="geometry" />
        </mxCell>
        <mxCell id="137N6jKFVl5DNXeLoapw-71" value="" style="endArrow=classic;html=1;rounded=0;exitX=0.75;exitY=0;exitDx=0;exitDy=0;entryX=0.748;entryY=1.033;entryDx=0;entryDy=0;entryPerimeter=0;" parent="1" source="137N6jKFVl5DNXeLoapw-27" target="137N6jKFVl5DNXeLoapw-12" edge="1">
          <mxGeometry width="50" height="50" relative="1" as="geometry">
            <mxPoint x="470" y="350" as="sourcePoint" />
            <mxPoint x="520" y="300" as="targetPoint" />
          </mxGeometry>
        </mxCell>
        <mxCell id="137N6jKFVl5DNXeLoapw-72" value="Payment process result" style="text;html=1;strokeColor=none;fillColor=none;align=center;verticalAlign=middle;whiteSpace=wrap;rounded=0;" parent="1" vertex="1">
          <mxGeometry x="360" y="310" width="60" height="30" as="geometry" />
        </mxCell>
      </root>
    </mxGraphModel>
  </diagram>
  <diagram id="qyou4TukmTRaeH1RPzws" name="Deployment Diagram">
    <mxGraphModel dx="901" dy="496" grid="1" gridSize="10" guides="1" tooltips="1" connect="1" arrows="1" fold="1" page="1" pageScale="1" pageWidth="850" pageHeight="1100" math="0" shadow="0">
      <root>
        <mxCell id="0" />
        <mxCell id="1" parent="0" />
        <mxCell id="dQ4jydL3keisAgwb7rf1-18" value="" style="rounded=0;whiteSpace=wrap;html=1;dashed=1;fillColor=none;" vertex="1" parent="1">
          <mxGeometry x="230" y="375" width="170" height="145" as="geometry" />
        </mxCell>
        <mxCell id="dQ4jydL3keisAgwb7rf1-19" value="" style="rounded=0;whiteSpace=wrap;html=1;dashed=1;fillColor=none;" vertex="1" parent="1">
          <mxGeometry x="10" y="230" width="190" height="130" as="geometry" />
        </mxCell>
        <mxCell id="dQ4jydL3keisAgwb7rf1-16" value="" style="rounded=0;whiteSpace=wrap;html=1;dashed=1;fillColor=none;" vertex="1" parent="1">
          <mxGeometry x="230" y="10" width="260" height="350" as="geometry" />
        </mxCell>
        <mxCell id="dQ4jydL3keisAgwb7rf1-1" value="" style="html=1;whiteSpace=wrap;shape=isoCube2;backgroundOutline=1;isoAngle=15;" vertex="1" parent="1">
          <mxGeometry x="260" y="240" width="90" height="100" as="geometry" />
        </mxCell>
        <mxCell id="dQ4jydL3keisAgwb7rf1-2" value="" style="html=1;whiteSpace=wrap;shape=isoCube2;backgroundOutline=1;isoAngle=15;" vertex="1" parent="1">
          <mxGeometry x="60" y="240" width="90" height="100" as="geometry" />
        </mxCell>
        <mxCell id="dQ4jydL3keisAgwb7rf1-3" value="" style="html=1;whiteSpace=wrap;shape=isoCube2;backgroundOutline=1;isoAngle=15;" vertex="1" parent="1">
          <mxGeometry x="380" y="240" width="90" height="100" as="geometry" />
        </mxCell>
        <mxCell id="dQ4jydL3keisAgwb7rf1-4" value="" style="html=1;whiteSpace=wrap;shape=isoCube2;backgroundOutline=1;isoAngle=15;" vertex="1" parent="1">
          <mxGeometry x="260" y="400" width="90" height="100" as="geometry" />
        </mxCell>
        <mxCell id="dQ4jydL3keisAgwb7rf1-5" value="" style="html=1;whiteSpace=wrap;shape=isoCube2;backgroundOutline=1;isoAngle=15;" vertex="1" parent="1">
          <mxGeometry x="260" y="130" width="90" height="100" as="geometry" />
        </mxCell>
        <mxCell id="dQ4jydL3keisAgwb7rf1-6" value="" style="html=1;whiteSpace=wrap;shape=isoCube2;backgroundOutline=1;isoAngle=15;" vertex="1" parent="1">
          <mxGeometry x="260" y="20" width="90" height="100" as="geometry" />
        </mxCell>
        <mxCell id="dQ4jydL3keisAgwb7rf1-8" value="Organizer" style="text;html=1;strokeColor=none;fillColor=white;align=center;verticalAlign=middle;whiteSpace=wrap;rounded=0;" vertex="1" parent="1">
          <mxGeometry x="270" y="280" width="60" height="30" as="geometry" />
        </mxCell>
        <mxCell id="dQ4jydL3keisAgwb7rf1-9" value="Search" style="text;html=1;strokeColor=none;fillColor=white&#xa;;align=center;verticalAlign=middle;whiteSpace=wrap;rounded=0;" vertex="1" parent="1">
          <mxGeometry x="390" y="280" width="50" height="30" as="geometry" />
        </mxCell>
        <mxCell id="dQ4jydL3keisAgwb7rf1-10" value="Project" style="text;html=1;strokeColor=none;fillColor=white;align=center;verticalAlign=middle;whiteSpace=wrap;rounded=0;" vertex="1" parent="1">
          <mxGeometry x="270" y="170" width="60" height="30" as="geometry" />
        </mxCell>
        <mxCell id="dQ4jydL3keisAgwb7rf1-12" value="Chat" style="text;html=1;strokeColor=none;fillColor=none;align=center;verticalAlign=middle;whiteSpace=wrap;rounded=0;" vertex="1" parent="1">
          <mxGeometry x="260" y="60" width="60" height="30" as="geometry" />
        </mxCell>
        <mxCell id="dQ4jydL3keisAgwb7rf1-7" value="Interface" style="text;html=1;strokeColor=none;fillColor=white;align=center;verticalAlign=middle;whiteSpace=wrap;rounded=0;" vertex="1" parent="1">
          <mxGeometry x="70" y="280" width="60" height="30" as="geometry" />
        </mxCell>
        <mxCell id="dQ4jydL3keisAgwb7rf1-14" value="Payment" style="text;html=1;strokeColor=none;fillColor=white;align=center;verticalAlign=middle;whiteSpace=wrap;rounded=0;" vertex="1" parent="1">
          <mxGeometry x="270" y="450" width="60" height="30" as="geometry" />
        </mxCell>
        <mxCell id="dQ4jydL3keisAgwb7rf1-20" value="" style="endArrow=none;html=1;rounded=0;exitX=0.737;exitY=0.308;exitDx=0;exitDy=0;exitPerimeter=0;" edge="1" parent="1" source="dQ4jydL3keisAgwb7rf1-19">
          <mxGeometry width="50" height="50" relative="1" as="geometry">
            <mxPoint x="350" y="320" as="sourcePoint" />
            <mxPoint x="260" y="270" as="targetPoint" />
          </mxGeometry>
        </mxCell>
        <mxCell id="dQ4jydL3keisAgwb7rf1-21" value="" style="endArrow=none;html=1;rounded=0;exitX=0.737;exitY=0.308;exitDx=0;exitDy=0;exitPerimeter=0;" edge="1" parent="1">
          <mxGeometry width="50" height="50" relative="1" as="geometry">
            <mxPoint x="150.02999999999997" y="289.03999999999996" as="sourcePoint" />
            <mxPoint x="260" y="289" as="targetPoint" />
          </mxGeometry>
        </mxCell>
        <mxCell id="dQ4jydL3keisAgwb7rf1-22" value="" style="endArrow=none;html=1;rounded=0;exitX=0.737;exitY=0.308;exitDx=0;exitDy=0;exitPerimeter=0;" edge="1" parent="1">
          <mxGeometry width="50" height="50" relative="1" as="geometry">
            <mxPoint x="150.02999999999997" y="304.53999999999996" as="sourcePoint" />
            <mxPoint x="260" y="304.5" as="targetPoint" />
          </mxGeometry>
        </mxCell>
        <mxCell id="dQ4jydL3keisAgwb7rf1-23" value="" style="endArrow=none;html=1;rounded=0;exitX=0.211;exitY=0.11;exitDx=0;exitDy=0;exitPerimeter=0;" edge="1" parent="1" source="dQ4jydL3keisAgwb7rf1-4">
          <mxGeometry width="50" height="50" relative="1" as="geometry">
            <mxPoint x="279.53" y="385.03999999999996" as="sourcePoint" />
            <mxPoint x="279.5" y="330" as="targetPoint" />
          </mxGeometry>
        </mxCell>
        <mxCell id="dQ4jydL3keisAgwb7rf1-24" value="" style="endArrow=none;html=1;rounded=0;exitX=0.211;exitY=0.11;exitDx=0;exitDy=0;exitPerimeter=0;" edge="1" parent="1">
          <mxGeometry width="50" height="50" relative="1" as="geometry">
            <mxPoint x="330" y="411" as="sourcePoint" />
            <mxPoint x="330.51" y="330" as="targetPoint" />
          </mxGeometry>
        </mxCell>
        <mxCell id="dQ4jydL3keisAgwb7rf1-25" value="" style="endArrow=none;html=1;rounded=0;entryX=0.5;entryY=1;entryDx=0;entryDy=0;entryPerimeter=0;" edge="1" parent="1" target="dQ4jydL3keisAgwb7rf1-1">
          <mxGeometry width="50" height="50" relative="1" as="geometry">
            <mxPoint x="305" y="400" as="sourcePoint" />
            <mxPoint x="299.5" y="350" as="targetPoint" />
          </mxGeometry>
        </mxCell>
        <mxCell id="dQ4jydL3keisAgwb7rf1-29" value="" style="endArrow=none;html=1;rounded=0;exitX=1;exitY=0.5;exitDx=0;exitDy=0;exitPerimeter=0;entryX=0;entryY=0.5;entryDx=0;entryDy=0;entryPerimeter=0;" edge="1" parent="1" source="dQ4jydL3keisAgwb7rf1-1" target="dQ4jydL3keisAgwb7rf1-3">
          <mxGeometry width="50" height="50" relative="1" as="geometry">
            <mxPoint x="370" y="330" as="sourcePoint" />
            <mxPoint x="420" y="280" as="targetPoint" />
          </mxGeometry>
        </mxCell>
        <mxCell id="dQ4jydL3keisAgwb7rf1-30" value="" style="endArrow=none;html=1;rounded=0;exitX=0.5;exitY=0;exitDx=0;exitDy=0;exitPerimeter=0;entryX=0.5;entryY=1;entryDx=0;entryDy=0;entryPerimeter=0;" edge="1" parent="1" source="dQ4jydL3keisAgwb7rf1-1" target="dQ4jydL3keisAgwb7rf1-5">
          <mxGeometry width="50" height="50" relative="1" as="geometry">
            <mxPoint x="360" y="300" as="sourcePoint" />
            <mxPoint x="390" y="300" as="targetPoint" />
          </mxGeometry>
        </mxCell>
        <mxCell id="dQ4jydL3keisAgwb7rf1-32" value="" style="endArrow=none;html=1;rounded=0;exitX=0.5;exitY=1;exitDx=0;exitDy=0;exitPerimeter=0;entryX=0.5;entryY=0;entryDx=0;entryDy=0;entryPerimeter=0;" edge="1" parent="1" source="dQ4jydL3keisAgwb7rf1-6" target="dQ4jydL3keisAgwb7rf1-5">
          <mxGeometry width="50" height="50" relative="1" as="geometry">
            <mxPoint x="325" y="260" as="sourcePoint" />
            <mxPoint x="325" y="250" as="targetPoint" />
          </mxGeometry>
        </mxCell>
      </root>
    </mxGraphModel>
  </diagram>
  <diagram id="39k7gzwZVB3spMNpTl_i" name="Agent Architecture">
    <mxGraphModel dx="2683" dy="541" grid="1" gridSize="10" guides="1" tooltips="1" connect="1" arrows="1" fold="1" page="1" pageScale="1" pageWidth="850" pageHeight="1100" math="0" shadow="0">
      <root>
        <mxCell id="0" />
        <mxCell id="1" parent="0" />
        <mxCell id="s3-upJ6VJOAEIgX_VkJn-14" value="LoginInterface" style="swimlane;fontStyle=1;align=center;verticalAlign=top;childLayout=stackLayout;horizontal=1;startSize=26;horizontalStack=0;resizeParent=1;resizeParentMax=0;resizeLast=0;collapsible=1;marginBottom=0;" vertex="1" parent="1">
          <mxGeometry x="460" y="200" width="160" height="94" as="geometry" />
        </mxCell>
        <mxCell id="s3-upJ6VJOAEIgX_VkJn-15" value="- userName: String&#xa;- password: String&#xa;" style="text;strokeColor=none;fillColor=none;align=left;verticalAlign=top;spacingLeft=4;spacingRight=4;overflow=hidden;rotatable=0;points=[[0,0.5],[1,0.5]];portConstraint=eastwest;" vertex="1" parent="s3-upJ6VJOAEIgX_VkJn-14">
          <mxGeometry y="26" width="160" height="34" as="geometry" />
        </mxCell>
        <mxCell id="s3-upJ6VJOAEIgX_VkJn-16" value="" style="line;strokeWidth=1;fillColor=none;align=left;verticalAlign=middle;spacingTop=-1;spacingLeft=3;spacingRight=3;rotatable=0;labelPosition=right;points=[];portConstraint=eastwest;strokeColor=inherit;" vertex="1" parent="s3-upJ6VJOAEIgX_VkJn-14">
          <mxGeometry y="60" width="160" height="8" as="geometry" />
        </mxCell>
        <mxCell id="s3-upJ6VJOAEIgX_VkJn-17" value="+ login()" style="text;strokeColor=none;fillColor=none;align=left;verticalAlign=top;spacingLeft=4;spacingRight=4;overflow=hidden;rotatable=0;points=[[0,0.5],[1,0.5]];portConstraint=eastwest;" vertex="1" parent="s3-upJ6VJOAEIgX_VkJn-14">
          <mxGeometry y="68" width="160" height="26" as="geometry" />
        </mxCell>
        <mxCell id="s3-upJ6VJOAEIgX_VkJn-18" value="Interface" style="swimlane;fontStyle=1;align=center;verticalAlign=top;childLayout=stackLayout;horizontal=1;startSize=26;horizontalStack=0;resizeParent=1;resizeParentMax=0;resizeLast=0;collapsible=1;marginBottom=0;" vertex="1" parent="1">
          <mxGeometry x="200" y="390" width="160" height="120" as="geometry" />
        </mxCell>
        <mxCell id="s3-upJ6VJOAEIgX_VkJn-19" value="- currentInterface: Interface&#xa;- organizer: Organizer&#xa;+ isGuest&#xa;" style="text;strokeColor=none;fillColor=none;align=left;verticalAlign=top;spacingLeft=4;spacingRight=4;overflow=hidden;rotatable=0;points=[[0,0.5],[1,0.5]];portConstraint=eastwest;" vertex="1" parent="s3-upJ6VJOAEIgX_VkJn-18">
          <mxGeometry y="26" width="160" height="50" as="geometry" />
        </mxCell>
        <mxCell id="s3-upJ6VJOAEIgX_VkJn-20" value="" style="line;strokeWidth=1;fillColor=none;align=left;verticalAlign=middle;spacingTop=-1;spacingLeft=3;spacingRight=3;rotatable=0;labelPosition=right;points=[];portConstraint=eastwest;strokeColor=inherit;" vertex="1" parent="s3-upJ6VJOAEIgX_VkJn-18">
          <mxGeometry y="76" width="160" height="8" as="geometry" />
        </mxCell>
        <mxCell id="s3-upJ6VJOAEIgX_VkJn-21" value="+ setInterface()&#xa;+ sendToOrganizer()&#xa;" style="text;strokeColor=none;fillColor=none;align=left;verticalAlign=top;spacingLeft=4;spacingRight=4;overflow=hidden;rotatable=0;points=[[0,0.5],[1,0.5]];portConstraint=eastwest;" vertex="1" parent="s3-upJ6VJOAEIgX_VkJn-18">
          <mxGeometry y="84" width="160" height="36" as="geometry" />
        </mxCell>
        <mxCell id="s3-upJ6VJOAEIgX_VkJn-22" value="SignUpInterface" style="swimlane;fontStyle=1;align=center;verticalAlign=top;childLayout=stackLayout;horizontal=1;startSize=26;horizontalStack=0;resizeParent=1;resizeParentMax=0;resizeLast=0;collapsible=1;marginBottom=0;" vertex="1" parent="1">
          <mxGeometry x="460" y="320" width="160" height="92" as="geometry" />
        </mxCell>
        <mxCell id="s3-upJ6VJOAEIgX_VkJn-23" value="- userName: String&#xa;- password: String" style="text;strokeColor=none;fillColor=none;align=left;verticalAlign=top;spacingLeft=4;spacingRight=4;overflow=hidden;rotatable=0;points=[[0,0.5],[1,0.5]];portConstraint=eastwest;" vertex="1" parent="s3-upJ6VJOAEIgX_VkJn-22">
          <mxGeometry y="26" width="160" height="32" as="geometry" />
        </mxCell>
        <mxCell id="s3-upJ6VJOAEIgX_VkJn-24" value="" style="line;strokeWidth=1;fillColor=none;align=left;verticalAlign=middle;spacingTop=-1;spacingLeft=3;spacingRight=3;rotatable=0;labelPosition=right;points=[];portConstraint=eastwest;strokeColor=inherit;" vertex="1" parent="s3-upJ6VJOAEIgX_VkJn-22">
          <mxGeometry y="58" width="160" height="8" as="geometry" />
        </mxCell>
        <mxCell id="s3-upJ6VJOAEIgX_VkJn-25" value="+ register(u: String, p: String)" style="text;strokeColor=none;fillColor=none;align=left;verticalAlign=top;spacingLeft=4;spacingRight=4;overflow=hidden;rotatable=0;points=[[0,0.5],[1,0.5]];portConstraint=eastwest;" vertex="1" parent="s3-upJ6VJOAEIgX_VkJn-22">
          <mxGeometry y="66" width="160" height="26" as="geometry" />
        </mxCell>
        <mxCell id="s3-upJ6VJOAEIgX_VkJn-26" value="SearchInterface" style="swimlane;fontStyle=1;align=center;verticalAlign=top;childLayout=stackLayout;horizontal=1;startSize=26;horizontalStack=0;resizeParent=1;resizeParentMax=0;resizeLast=0;collapsible=1;marginBottom=0;" vertex="1" parent="1">
          <mxGeometry x="460" y="440" width="160" height="60" as="geometry" />
        </mxCell>
        <mxCell id="s3-upJ6VJOAEIgX_VkJn-28" value="" style="line;strokeWidth=1;fillColor=none;align=left;verticalAlign=middle;spacingTop=-1;spacingLeft=3;spacingRight=3;rotatable=0;labelPosition=right;points=[];portConstraint=eastwest;strokeColor=inherit;" vertex="1" parent="s3-upJ6VJOAEIgX_VkJn-26">
          <mxGeometry y="26" width="160" height="8" as="geometry" />
        </mxCell>
        <mxCell id="s3-upJ6VJOAEIgX_VkJn-29" value="+ search(query: String)" style="text;strokeColor=none;fillColor=none;align=left;verticalAlign=top;spacingLeft=4;spacingRight=4;overflow=hidden;rotatable=0;points=[[0,0.5],[1,0.5]];portConstraint=eastwest;" vertex="1" parent="s3-upJ6VJOAEIgX_VkJn-26">
          <mxGeometry y="34" width="160" height="26" as="geometry" />
        </mxCell>
        <mxCell id="s3-upJ6VJOAEIgX_VkJn-30" value="ProfileInterface" style="swimlane;fontStyle=1;align=center;verticalAlign=top;childLayout=stackLayout;horizontal=1;startSize=26;horizontalStack=0;resizeParent=1;resizeParentMax=0;resizeLast=0;collapsible=1;marginBottom=0;" vertex="1" parent="1">
          <mxGeometry x="460" y="530" width="160" height="60" as="geometry" />
        </mxCell>
        <mxCell id="s3-upJ6VJOAEIgX_VkJn-32" value="" style="line;strokeWidth=1;fillColor=none;align=left;verticalAlign=middle;spacingTop=-1;spacingLeft=3;spacingRight=3;rotatable=0;labelPosition=right;points=[];portConstraint=eastwest;strokeColor=inherit;" vertex="1" parent="s3-upJ6VJOAEIgX_VkJn-30">
          <mxGeometry y="26" width="160" height="8" as="geometry" />
        </mxCell>
        <mxCell id="s3-upJ6VJOAEIgX_VkJn-33" value="+ mangeProfile:" style="text;strokeColor=none;fillColor=none;align=left;verticalAlign=top;spacingLeft=4;spacingRight=4;overflow=hidden;rotatable=0;points=[[0,0.5],[1,0.5]];portConstraint=eastwest;" vertex="1" parent="s3-upJ6VJOAEIgX_VkJn-30">
          <mxGeometry y="34" width="160" height="26" as="geometry" />
        </mxCell>
        <mxCell id="s3-upJ6VJOAEIgX_VkJn-37" value="" style="edgeStyle=elbowEdgeStyle;elbow=horizontal;endArrow=classic;html=1;rounded=0;exitX=1;exitY=0.5;exitDx=0;exitDy=0;entryX=0;entryY=0.5;entryDx=0;entryDy=0;" edge="1" parent="1" source="s3-upJ6VJOAEIgX_VkJn-19" target="s3-upJ6VJOAEIgX_VkJn-15">
          <mxGeometry width="50" height="50" relative="1" as="geometry">
            <mxPoint x="560" y="450" as="sourcePoint" />
            <mxPoint x="610" y="400" as="targetPoint" />
          </mxGeometry>
        </mxCell>
        <mxCell id="s3-upJ6VJOAEIgX_VkJn-38" value="" style="edgeStyle=elbowEdgeStyle;elbow=horizontal;endArrow=classic;html=1;rounded=0;exitX=1;exitY=0.5;exitDx=0;exitDy=0;entryX=0;entryY=0.5;entryDx=0;entryDy=0;" edge="1" parent="1" source="s3-upJ6VJOAEIgX_VkJn-19" target="s3-upJ6VJOAEIgX_VkJn-23">
          <mxGeometry width="50" height="50" relative="1" as="geometry">
            <mxPoint x="370" y="443" as="sourcePoint" />
            <mxPoint x="470" y="253" as="targetPoint" />
          </mxGeometry>
        </mxCell>
        <mxCell id="s3-upJ6VJOAEIgX_VkJn-39" value="" style="edgeStyle=elbowEdgeStyle;elbow=horizontal;endArrow=classic;html=1;rounded=0;exitX=1;exitY=0.5;exitDx=0;exitDy=0;entryX=0;entryY=0.5;entryDx=0;entryDy=0;" edge="1" parent="1" source="s3-upJ6VJOAEIgX_VkJn-19" target="s3-upJ6VJOAEIgX_VkJn-26">
          <mxGeometry width="50" height="50" relative="1" as="geometry">
            <mxPoint x="380" y="453" as="sourcePoint" />
            <mxPoint x="480" y="263" as="targetPoint" />
          </mxGeometry>
        </mxCell>
        <mxCell id="s3-upJ6VJOAEIgX_VkJn-40" value="" style="edgeStyle=elbowEdgeStyle;elbow=horizontal;endArrow=classic;html=1;rounded=0;exitX=1;exitY=0.5;exitDx=0;exitDy=0;entryX=0;entryY=0.5;entryDx=0;entryDy=0;" edge="1" parent="1" source="s3-upJ6VJOAEIgX_VkJn-19" target="s3-upJ6VJOAEIgX_VkJn-30">
          <mxGeometry width="50" height="50" relative="1" as="geometry">
            <mxPoint x="370" y="443" as="sourcePoint" />
            <mxPoint x="470" y="480" as="targetPoint" />
          </mxGeometry>
        </mxCell>
        <mxCell id="s3-upJ6VJOAEIgX_VkJn-41" value="" style="endArrow=classic;html=1;rounded=0;exitX=0;exitY=0.5;exitDx=0;exitDy=0;" edge="1" parent="1" source="s3-upJ6VJOAEIgX_VkJn-19">
          <mxGeometry width="50" height="50" relative="1" as="geometry">
            <mxPoint x="480" y="440" as="sourcePoint" />
            <mxPoint x="140" y="441" as="targetPoint" />
          </mxGeometry>
        </mxCell>
        <mxCell id="s3-upJ6VJOAEIgX_VkJn-42" value="To Organizer Agent" style="text;html=1;strokeColor=none;fillColor=none;align=center;verticalAlign=middle;whiteSpace=wrap;rounded=0;" vertex="1" parent="1">
          <mxGeometry x="120" y="400" width="80" height="30" as="geometry" />
        </mxCell>
        <mxCell id="s3-upJ6VJOAEIgX_VkJn-43" value="Organizer" style="swimlane;fontStyle=1;align=center;verticalAlign=top;childLayout=stackLayout;horizontal=1;startSize=26;horizontalStack=0;resizeParent=1;resizeParentMax=0;resizeLast=0;collapsible=1;marginBottom=0;" vertex="1" parent="1">
          <mxGeometry x="-310" y="345" width="240" height="136" as="geometry" />
        </mxCell>
        <mxCell id="s3-upJ6VJOAEIgX_VkJn-45" value="" style="line;strokeWidth=1;fillColor=none;align=left;verticalAlign=middle;spacingTop=-1;spacingLeft=3;spacingRight=3;rotatable=0;labelPosition=right;points=[];portConstraint=eastwest;strokeColor=inherit;" vertex="1" parent="s3-upJ6VJOAEIgX_VkJn-43">
          <mxGeometry y="26" width="240" height="8" as="geometry" />
        </mxCell>
        <mxCell id="s3-upJ6VJOAEIgX_VkJn-46" value="- getUserData(id: String): UserData&#xa;- updateInterface()&#xa;- processPayment(): String&#xa;- initateNewProject()&#xa;- modifyContract(id: String)&#xa;- notifyUser(id: String, message: String)&#xa;" style="text;strokeColor=none;fillColor=none;align=left;verticalAlign=top;spacingLeft=4;spacingRight=4;overflow=hidden;rotatable=0;points=[[0,0.5],[1,0.5]];portConstraint=eastwest;" vertex="1" parent="s3-upJ6VJOAEIgX_VkJn-43">
          <mxGeometry y="34" width="240" height="102" as="geometry" />
        </mxCell>
        <mxCell id="s3-upJ6VJOAEIgX_VkJn-47" value="" style="endArrow=classic;html=1;rounded=0;exitX=1;exitY=0.5;exitDx=0;exitDy=0;entryX=0.899;entryY=1;entryDx=0;entryDy=0;entryPerimeter=0;" edge="1" parent="1" source="s3-upJ6VJOAEIgX_VkJn-46" target="s3-upJ6VJOAEIgX_VkJn-48">
          <mxGeometry width="50" height="50" relative="1" as="geometry">
            <mxPoint x="30" y="430" as="sourcePoint" />
            <mxPoint y="434" as="targetPoint" />
          </mxGeometry>
        </mxCell>
        <mxCell id="s3-upJ6VJOAEIgX_VkJn-48" value="To Interface Agent" style="text;html=1;strokeColor=none;fillColor=none;align=center;verticalAlign=middle;whiteSpace=wrap;rounded=0;" vertex="1" parent="1">
          <mxGeometry x="-70" y="400" width="80" height="30" as="geometry" />
        </mxCell>
        <mxCell id="s3-upJ6VJOAEIgX_VkJn-49" value="" style="endArrow=classic;html=1;rounded=0;exitX=0.707;exitY=1.005;exitDx=0;exitDy=0;exitPerimeter=0;" edge="1" parent="1" source="s3-upJ6VJOAEIgX_VkJn-46">
          <mxGeometry width="50" height="50" relative="1" as="geometry">
            <mxPoint x="-150" y="510" as="sourcePoint" />
            <mxPoint x="-141" y="540" as="targetPoint" />
          </mxGeometry>
        </mxCell>
        <mxCell id="s3-upJ6VJOAEIgX_VkJn-50" value="To Project Agent" style="text;html=1;strokeColor=none;fillColor=none;align=center;verticalAlign=middle;whiteSpace=wrap;rounded=0;" vertex="1" parent="1">
          <mxGeometry x="-130" y="500" width="80" height="30" as="geometry" />
        </mxCell>
        <mxCell id="s3-upJ6VJOAEIgX_VkJn-53" value="To Payment Agent" style="text;html=1;strokeColor=none;fillColor=none;align=center;verticalAlign=middle;whiteSpace=wrap;rounded=0;" vertex="1" parent="1">
          <mxGeometry x="-330" y="500" width="80" height="30" as="geometry" />
        </mxCell>
        <mxCell id="s3-upJ6VJOAEIgX_VkJn-54" value="" style="endArrow=classic;html=1;rounded=0;" edge="1" parent="1">
          <mxGeometry width="50" height="50" relative="1" as="geometry">
            <mxPoint x="-250" y="480" as="sourcePoint" />
            <mxPoint x="-250" y="540" as="targetPoint" />
          </mxGeometry>
        </mxCell>
        <mxCell id="s3-upJ6VJOAEIgX_VkJn-56" value="" style="endArrow=classic;html=1;rounded=0;exitX=0;exitY=0.5;exitDx=0;exitDy=0;" edge="1" parent="1" source="s3-upJ6VJOAEIgX_VkJn-46">
          <mxGeometry width="50" height="50" relative="1" as="geometry">
            <mxPoint x="-190" y="490" as="sourcePoint" />
            <mxPoint x="-370" y="430" as="targetPoint" />
          </mxGeometry>
        </mxCell>
        <mxCell id="s3-upJ6VJOAEIgX_VkJn-57" value="To Organizer Agent" style="text;html=1;strokeColor=none;fillColor=none;align=center;verticalAlign=middle;whiteSpace=wrap;rounded=0;" vertex="1" parent="1">
          <mxGeometry x="-560" y="360" width="80" height="30" as="geometry" />
        </mxCell>
        <mxCell id="JW2c4L_xZssX6VgsPQEk-1" value="Search" style="swimlane;fontStyle=1;align=center;verticalAlign=top;childLayout=stackLayout;horizontal=1;startSize=26;horizontalStack=0;resizeParent=1;resizeParentMax=0;resizeLast=0;collapsible=1;marginBottom=0;" vertex="1" parent="1">
          <mxGeometry x="-740" y="345" width="180" height="96" as="geometry" />
        </mxCell>
        <mxCell id="JW2c4L_xZssX6VgsPQEk-2" value="- sortingMethod: SortingMethod&#xa;" style="text;strokeColor=none;fillColor=none;align=left;verticalAlign=top;spacingLeft=4;spacingRight=4;overflow=hidden;rotatable=0;points=[[0,0.5],[1,0.5]];portConstraint=eastwest;" vertex="1" parent="JW2c4L_xZssX6VgsPQEk-1">
          <mxGeometry y="26" width="180" height="14" as="geometry" />
        </mxCell>
        <mxCell id="JW2c4L_xZssX6VgsPQEk-3" value="" style="line;strokeWidth=1;fillColor=none;align=left;verticalAlign=middle;spacingTop=-1;spacingLeft=3;spacingRight=3;rotatable=0;labelPosition=right;points=[];portConstraint=eastwest;strokeColor=inherit;" vertex="1" parent="JW2c4L_xZssX6VgsPQEk-1">
          <mxGeometry y="40" width="180" height="20" as="geometry" />
        </mxCell>
        <mxCell id="JW2c4L_xZssX6VgsPQEk-4" value="+ queryAllUserData()&#xa;+ queryGuestLimitedUserData()&#xa;" style="text;strokeColor=none;fillColor=none;align=left;verticalAlign=top;spacingLeft=4;spacingRight=4;overflow=hidden;rotatable=0;points=[[0,0.5],[1,0.5]];portConstraint=eastwest;" vertex="1" parent="JW2c4L_xZssX6VgsPQEk-1">
          <mxGeometry y="60" width="180" height="36" as="geometry" />
        </mxCell>
        <mxCell id="JW2c4L_xZssX6VgsPQEk-5" value="SortingMethod" style="swimlane;fontStyle=1;align=center;verticalAlign=top;childLayout=stackLayout;horizontal=1;startSize=26;horizontalStack=0;resizeParent=1;resizeParentMax=0;resizeLast=0;collapsible=1;marginBottom=0;" vertex="1" parent="1">
          <mxGeometry x="-990" y="345" width="180" height="80" as="geometry" />
        </mxCell>
        <mxCell id="JW2c4L_xZssX6VgsPQEk-6" value="- defaultSortingQuery: String" style="text;strokeColor=none;fillColor=none;align=left;verticalAlign=top;spacingLeft=4;spacingRight=4;overflow=hidden;rotatable=0;points=[[0,0.5],[1,0.5]];portConstraint=eastwest;" vertex="1" parent="JW2c4L_xZssX6VgsPQEk-5">
          <mxGeometry y="26" width="180" height="24" as="geometry" />
        </mxCell>
        <mxCell id="JW2c4L_xZssX6VgsPQEk-7" value="" style="line;strokeWidth=1;fillColor=none;align=left;verticalAlign=middle;spacingTop=-1;spacingLeft=3;spacingRight=3;rotatable=0;labelPosition=right;points=[];portConstraint=eastwest;strokeColor=inherit;" vertex="1" parent="JW2c4L_xZssX6VgsPQEk-5">
          <mxGeometry y="50" width="180" height="8" as="geometry" />
        </mxCell>
        <mxCell id="JW2c4L_xZssX6VgsPQEk-8" value="+ setSortingQuery()&#xa;" style="text;strokeColor=none;fillColor=none;align=left;verticalAlign=top;spacingLeft=4;spacingRight=4;overflow=hidden;rotatable=0;points=[[0,0.5],[1,0.5]];portConstraint=eastwest;" vertex="1" parent="JW2c4L_xZssX6VgsPQEk-5">
          <mxGeometry y="58" width="180" height="22" as="geometry" />
        </mxCell>
        <mxCell id="JW2c4L_xZssX6VgsPQEk-10" value="1" style="endArrow=open;html=1;endSize=12;startArrow=diamondThin;startSize=14;startFill=0;edgeStyle=orthogonalEdgeStyle;align=left;verticalAlign=bottom;rounded=0;exitX=0.006;exitY=-0.139;exitDx=0;exitDy=0;exitPerimeter=0;entryX=1.007;entryY=0.88;entryDx=0;entryDy=0;entryPerimeter=0;" edge="1" parent="1" source="JW2c4L_xZssX6VgsPQEk-4" target="JW2c4L_xZssX6VgsPQEk-6">
          <mxGeometry x="-1" y="3" relative="1" as="geometry">
            <mxPoint x="-580" y="430" as="sourcePoint" />
            <mxPoint x="-420" y="430" as="targetPoint" />
          </mxGeometry>
        </mxCell>
        <mxCell id="JW2c4L_xZssX6VgsPQEk-11" value="" style="endArrow=classic;html=1;rounded=0;exitX=1;exitY=0.5;exitDx=0;exitDy=0;" edge="1" parent="1" source="JW2c4L_xZssX6VgsPQEk-1">
          <mxGeometry width="50" height="50" relative="1" as="geometry">
            <mxPoint x="-240" y="490" as="sourcePoint" />
            <mxPoint x="-510" y="393" as="targetPoint" />
          </mxGeometry>
        </mxCell>
        <mxCell id="JW2c4L_xZssX6VgsPQEk-12" value="To Search Agent" style="text;html=1;strokeColor=none;fillColor=none;align=center;verticalAlign=middle;whiteSpace=wrap;rounded=0;" vertex="1" parent="1">
          <mxGeometry x="-390" y="398" width="80" height="30" as="geometry" />
        </mxCell>
        <mxCell id="JW2c4L_xZssX6VgsPQEk-13" value="Payment" style="swimlane;fontStyle=1;align=center;verticalAlign=top;childLayout=stackLayout;horizontal=1;startSize=26;horizontalStack=0;resizeParent=1;resizeParentMax=0;resizeLast=0;collapsible=1;marginBottom=0;" vertex="1" parent="1">
          <mxGeometry x="-560" y="800" width="240" height="130" as="geometry" />
        </mxCell>
        <mxCell id="JW2c4L_xZssX6VgsPQEk-15" value="" style="line;strokeWidth=1;fillColor=none;align=left;verticalAlign=middle;spacingTop=-1;spacingLeft=3;spacingRight=3;rotatable=0;labelPosition=right;points=[];portConstraint=eastwest;strokeColor=inherit;" vertex="1" parent="JW2c4L_xZssX6VgsPQEk-13">
          <mxGeometry y="26" width="240" height="20" as="geometry" />
        </mxCell>
        <mxCell id="JW2c4L_xZssX6VgsPQEk-16" value="- queryFinanicalDatabase(id: string)&#xa;- chargeClient(amount: double, id: string)&#xa;- payProvider(amount: double, id: string)&#xa;- billServiceFee(amount: double)&#xa;- recordPayment()&#xa;&#xa;&#xa;" style="text;strokeColor=none;fillColor=none;align=left;verticalAlign=top;spacingLeft=4;spacingRight=4;overflow=hidden;rotatable=0;points=[[0,0.5],[1,0.5]];portConstraint=eastwest;" vertex="1" parent="JW2c4L_xZssX6VgsPQEk-13">
          <mxGeometry y="46" width="240" height="84" as="geometry" />
        </mxCell>
        <mxCell id="JW2c4L_xZssX6VgsPQEk-17" value="" style="endArrow=classic;html=1;rounded=0;exitX=0.5;exitY=0;exitDx=0;exitDy=0;" edge="1" parent="1" source="JW2c4L_xZssX6VgsPQEk-13">
          <mxGeometry width="50" height="50" relative="1" as="geometry">
            <mxPoint x="-320" y="650" as="sourcePoint" />
            <mxPoint x="-440" y="730" as="targetPoint" />
          </mxGeometry>
        </mxCell>
        <mxCell id="JW2c4L_xZssX6VgsPQEk-18" value="To Organizer Agent" style="text;html=1;strokeColor=none;fillColor=none;align=center;verticalAlign=middle;whiteSpace=wrap;rounded=0;" vertex="1" parent="1">
          <mxGeometry x="-530" y="750" width="80" height="30" as="geometry" />
        </mxCell>
        <mxCell id="JW2c4L_xZssX6VgsPQEk-19" value="Project" style="swimlane;fontStyle=1;align=center;verticalAlign=top;childLayout=stackLayout;horizontal=1;startSize=26;horizontalStack=0;resizeParent=1;resizeParentMax=0;resizeLast=0;collapsible=1;marginBottom=0;" vertex="1" parent="1">
          <mxGeometry x="-230" y="800" width="230" height="190" as="geometry" />
        </mxCell>
        <mxCell id="JW2c4L_xZssX6VgsPQEk-20" value="- contract: Contract&#xa;- provider: Provider&#xa;- client: Client" style="text;strokeColor=none;fillColor=none;align=left;verticalAlign=top;spacingLeft=4;spacingRight=4;overflow=hidden;rotatable=0;points=[[0,0.5],[1,0.5]];portConstraint=eastwest;" vertex="1" parent="JW2c4L_xZssX6VgsPQEk-19">
          <mxGeometry y="26" width="230" height="44" as="geometry" />
        </mxCell>
        <mxCell id="JW2c4L_xZssX6VgsPQEk-21" value="" style="line;strokeWidth=1;fillColor=none;align=left;verticalAlign=middle;spacingTop=-1;spacingLeft=3;spacingRight=3;rotatable=0;labelPosition=right;points=[];portConstraint=eastwest;strokeColor=inherit;" vertex="1" parent="JW2c4L_xZssX6VgsPQEk-19">
          <mxGeometry y="70" width="230" height="8" as="geometry" />
        </mxCell>
        <mxCell id="JW2c4L_xZssX6VgsPQEk-22" value="- draftContract(): Contract&#xa;- updateProgress(p: double)&#xa;- createChatRoom(c: Client, p: Provider)&#xa;- closeProject()&#xa;- rateClient()&#xa;- rateProvider()&#xa;- informOrganizer()&#xa;&#xa;&#xa;&#xa;" style="text;strokeColor=none;fillColor=none;align=left;verticalAlign=top;spacingLeft=4;spacingRight=4;overflow=hidden;rotatable=0;points=[[0,0.5],[1,0.5]];portConstraint=eastwest;" vertex="1" parent="JW2c4L_xZssX6VgsPQEk-19">
          <mxGeometry y="78" width="230" height="112" as="geometry" />
        </mxCell>
        <mxCell id="JW2c4L_xZssX6VgsPQEk-23" value="Contract" style="swimlane;fontStyle=1;align=center;verticalAlign=top;childLayout=stackLayout;horizontal=1;startSize=26;horizontalStack=0;resizeParent=1;resizeParentMax=0;resizeLast=0;collapsible=1;marginBottom=0;" vertex="1" parent="1">
          <mxGeometry x="60" y="820" width="160" height="74" as="geometry" />
        </mxCell>
        <mxCell id="JW2c4L_xZssX6VgsPQEk-24" value="&#xa;" style="text;strokeColor=none;fillColor=none;align=left;verticalAlign=top;spacingLeft=4;spacingRight=4;overflow=hidden;rotatable=0;points=[[0,0.5],[1,0.5]];portConstraint=eastwest;" vertex="1" parent="JW2c4L_xZssX6VgsPQEk-23">
          <mxGeometry y="26" width="160" height="4" as="geometry" />
        </mxCell>
        <mxCell id="JW2c4L_xZssX6VgsPQEk-25" value="" style="line;strokeWidth=1;fillColor=none;align=left;verticalAlign=middle;spacingTop=-1;spacingLeft=3;spacingRight=3;rotatable=0;labelPosition=right;points=[];portConstraint=eastwest;strokeColor=inherit;" vertex="1" parent="JW2c4L_xZssX6VgsPQEk-23">
          <mxGeometry y="30" width="160" height="8" as="geometry" />
        </mxCell>
        <mxCell id="JW2c4L_xZssX6VgsPQEk-26" value="- modifyDeadline()&#xa;- saveContractToDB()&#xa;&#xa;" style="text;strokeColor=none;fillColor=none;align=left;verticalAlign=top;spacingLeft=4;spacingRight=4;overflow=hidden;rotatable=0;points=[[0,0.5],[1,0.5]];portConstraint=eastwest;" vertex="1" parent="JW2c4L_xZssX6VgsPQEk-23">
          <mxGeometry y="38" width="160" height="36" as="geometry" />
        </mxCell>
        <mxCell id="JW2c4L_xZssX6VgsPQEk-28" value="1" style="endArrow=open;html=1;endSize=12;startArrow=diamondThin;startSize=14;startFill=1;edgeStyle=orthogonalEdgeStyle;align=left;verticalAlign=bottom;rounded=0;exitX=1.022;exitY=-0.012;exitDx=0;exitDy=0;exitPerimeter=0;entryX=0;entryY=0.5;entryDx=0;entryDy=0;" edge="1" parent="1" source="JW2c4L_xZssX6VgsPQEk-22" target="JW2c4L_xZssX6VgsPQEk-26">
          <mxGeometry x="-1" y="3" relative="1" as="geometry">
            <mxPoint x="-120" y="840" as="sourcePoint" />
            <mxPoint x="40" y="840" as="targetPoint" />
          </mxGeometry>
        </mxCell>
        <mxCell id="JW2c4L_xZssX6VgsPQEk-30" value="" style="endArrow=classic;html=1;rounded=0;exitX=0.5;exitY=0;exitDx=0;exitDy=0;" edge="1" parent="1" source="JW2c4L_xZssX6VgsPQEk-19">
          <mxGeometry width="50" height="50" relative="1" as="geometry">
            <mxPoint x="-80" y="799.9999999999999" as="sourcePoint" />
            <mxPoint x="-115" y="730" as="targetPoint" />
          </mxGeometry>
        </mxCell>
        <mxCell id="JW2c4L_xZssX6VgsPQEk-31" value="To Organizer Agent" style="text;html=1;strokeColor=none;fillColor=none;align=center;verticalAlign=middle;whiteSpace=wrap;rounded=0;" vertex="1" parent="1">
          <mxGeometry x="-200" y="750" width="80" height="30" as="geometry" />
        </mxCell>
        <mxCell id="JW2c4L_xZssX6VgsPQEk-32" value="Chat" style="swimlane;fontStyle=1;align=center;verticalAlign=top;childLayout=stackLayout;horizontal=1;startSize=26;horizontalStack=0;resizeParent=1;resizeParentMax=0;resizeLast=0;collapsible=1;marginBottom=0;" vertex="1" parent="1">
          <mxGeometry x="-195" y="1140" width="160" height="110" as="geometry" />
        </mxCell>
        <mxCell id="JW2c4L_xZssX6VgsPQEk-33" value="- contract: Contract&#xa;- provider: Provider" style="text;strokeColor=none;fillColor=none;align=left;verticalAlign=top;spacingLeft=4;spacingRight=4;overflow=hidden;rotatable=0;points=[[0,0.5],[1,0.5]];portConstraint=eastwest;" vertex="1" parent="JW2c4L_xZssX6VgsPQEk-32">
          <mxGeometry y="26" width="160" height="34" as="geometry" />
        </mxCell>
        <mxCell id="JW2c4L_xZssX6VgsPQEk-34" value="" style="line;strokeWidth=1;fillColor=none;align=left;verticalAlign=middle;spacingTop=-1;spacingLeft=3;spacingRight=3;rotatable=0;labelPosition=right;points=[];portConstraint=eastwest;strokeColor=inherit;" vertex="1" parent="JW2c4L_xZssX6VgsPQEk-32">
          <mxGeometry y="60" width="160" height="8" as="geometry" />
        </mxCell>
        <mxCell id="JW2c4L_xZssX6VgsPQEk-35" value="- createChatRoom()&#xa;- transcriptChat()&#xa;" style="text;strokeColor=none;fillColor=none;align=left;verticalAlign=top;spacingLeft=4;spacingRight=4;overflow=hidden;rotatable=0;points=[[0,0.5],[1,0.5]];portConstraint=eastwest;" vertex="1" parent="JW2c4L_xZssX6VgsPQEk-32">
          <mxGeometry y="68" width="160" height="42" as="geometry" />
        </mxCell>
        <mxCell id="JW2c4L_xZssX6VgsPQEk-38" value="" style="endArrow=classic;html=1;rounded=0;exitX=0.493;exitY=1.024;exitDx=0;exitDy=0;exitPerimeter=0;" edge="1" parent="1" source="JW2c4L_xZssX6VgsPQEk-22">
          <mxGeometry width="50" height="50" relative="1" as="geometry">
            <mxPoint x="-80" y="1060" as="sourcePoint" />
            <mxPoint x="-117" y="1040" as="targetPoint" />
          </mxGeometry>
        </mxCell>
        <mxCell id="JW2c4L_xZssX6VgsPQEk-39" value="To Chat Agent" style="text;html=1;strokeColor=none;fillColor=none;align=center;verticalAlign=middle;whiteSpace=wrap;rounded=0;" vertex="1" parent="1">
          <mxGeometry x="-110" y="1000" width="80" height="30" as="geometry" />
        </mxCell>
        <mxCell id="JW2c4L_xZssX6VgsPQEk-40" value="" style="endArrow=classic;html=1;rounded=0;exitX=0.5;exitY=0;exitDx=0;exitDy=0;" edge="1" parent="1" source="JW2c4L_xZssX6VgsPQEk-32">
          <mxGeometry width="50" height="50" relative="1" as="geometry">
            <mxPoint x="-70" y="1070" as="sourcePoint" />
            <mxPoint x="-115" y="1090" as="targetPoint" />
          </mxGeometry>
        </mxCell>
        <mxCell id="JW2c4L_xZssX6VgsPQEk-41" value="To Project Agent" style="text;html=1;strokeColor=none;fillColor=none;align=center;verticalAlign=middle;whiteSpace=wrap;rounded=0;" vertex="1" parent="1">
          <mxGeometry x="-115" y="1100" width="80" height="30" as="geometry" />
        </mxCell>
      </root>
    </mxGraphModel>
  </diagram>
</mxfile>
